<?xml version="1.0" standalone="no"?>
<svg xmlns="http://www.w3.org/2000/svg" width="2000" height="2000"><defs><clipPath id="clip-path-dot-color"><rect x="28" y="631" width="67" height="67" transform="rotate(0,61.5,664.5)"/><rect x="28" y="832" width="67" height="67" transform="rotate(0,61.5,865.5)"/><rect x="28" y="966" width="67" height="67" transform="rotate(0,61.5,999.5)"/><rect x="28" y="1100" width="67" height="67" transform="rotate(0,61.5,1133.5)"/><rect x="28" y="1167" width="67" height="67" transform="rotate(0,61.5,1200.5)"/><rect x="28" y="1234" width="67" height="67" transform="rotate(0,61.5,1267.5)"/><rect x="95" y="765" width="67" height="67" transform="rotate(0,128.5,798.5)"/><rect x="95" y="832" width="67" height="67" transform="rotate(0,128.5,865.5)"/><rect x="95" y="899" width="67" height="67" transform="rotate(0,128.5,932.5)"/><rect x="95" y="966" width="67" height="67" transform="rotate(0,128.5,999.5)"/><rect x="95" y="1033" width="67" height="67" transform="rotate(0,128.5,1066.5)"/><rect x="95" y="1301" width="67" height="67" transform="rotate(0,128.5,1334.5)"/><rect x="162" y="564" width="67" height="67" transform="rotate(0,195.5,597.5)"/><rect x="162" y="631" width="67" height="67" transform="rotate(0,195.5,664.5)"/><rect x="162" y="698" width="67" height="67" transform="rotate(0,195.5,731.5)"/><rect x="162" y="765" width="67" height="67" transform="rotate(0,195.5,798.5)"/><rect x="162" y="1033" width="67" height="67" transform="rotate(0,195.5,1066.5)"/><rect x="162" y="1100" width="67" height="67" transform="rotate(0,195.5,1133.5)"/><rect x="162" y="1167" width="67" height="67" transform="rotate(0,195.5,1200.5)"/><rect x="162" y="1234" width="67" height="67" transform="rotate(0,195.5,1267.5)"/><rect x="229" y="631" width="67" height="67" transform="rotate(0,262.5,664.5)"/><rect x="229" y="765" width="67" height="67" transform="rotate(0,262.5,798.5)"/><rect x="229" y="899" width="67" height="67" transform="rotate(0,262.5,932.5)"/><rect x="229" y="1033" width="67" height="67" transform="rotate(0,262.5,1066.5)"/><rect x="229" y="1100" width="67" height="67" transform="rotate(0,262.5,1133.5)"/><rect x="229" y="1234" width="67" height="67" transform="rotate(0,262.5,1267.5)"/><rect x="229" y="1301" width="67" height="67" transform="rotate(0,262.5,1334.5)"/><rect x="296" y="564" width="67" height="67" transform="rotate(0,329.5,597.5)"/><rect x="296" y="631" width="67" height="67" transform="rotate(0,329.5,664.5)"/><rect x="296" y="698" width="67" height="67" transform="rotate(0,329.5,731.5)"/><rect x="296" y="966" width="67" height="67" transform="rotate(0,329.5,999.5)"/><rect x="296" y="1167" width="67" height="67" transform="rotate(0,329.5,1200.5)"/><rect x="296" y="1234" width="67" height="67" transform="rotate(0,329.5,1267.5)"/><rect x="363" y="564" width="67" height="67" transform="rotate(0,396.5,597.5)"/><rect x="363" y="631" width="67" height="67" transform="rotate(0,396.5,664.5)"/><rect x="363" y="698" width="67" height="67" transform="rotate(0,396.5,731.5)"/><rect x="363" y="899" width="67" height="67" transform="rotate(0,396.5,932.5)"/><rect x="363" y="966" width="67" height="67" transform="rotate(0,396.5,999.5)"/><rect x="363" y="1167" width="67" height="67" transform="rotate(0,396.5,1200.5)"/><rect x="363" y="1301" width="67" height="67" transform="rotate(0,396.5,1334.5)"/><rect x="363" y="1368" width="67" height="67" transform="rotate(0,396.5,1401.5)"/><rect x="430" y="564" width="67" height="67" transform="rotate(0,463.5,597.5)"/><rect x="430" y="698" width="67" height="67" transform="rotate(0,463.5,731.5)"/><rect x="430" y="832" width="67" height="67" transform="rotate(0,463.5,865.5)"/><rect x="430" y="966" width="67" height="67" transform="rotate(0,463.5,999.5)"/><rect x="430" y="1100" width="67" height="67" transform="rotate(0,463.5,1133.5)"/><rect x="430" y="1234" width="67" height="67" transform="rotate(0,463.5,1267.5)"/><rect x="430" y="1368" width="67" height="67" transform="rotate(0,463.5,1401.5)"/><rect x="497" y="631" width="67" height="67" transform="rotate(0,530.5,664.5)"/><rect x="497" y="765" width="67" height="67" transform="rotate(0,530.5,798.5)"/><rect x="497" y="832" width="67" height="67" transform="rotate(0,530.5,865.5)"/><rect x="497" y="1033" width="67" height="67" transform="rotate(0,530.5,1066.5)"/><rect x="497" y="1167" width="67" height="67" transform="rotate(0,530.5,1200.5)"/><rect x="497" y="1234" width="67" height="67" transform="rotate(0,530.5,1267.5)"/><rect x="497" y="1301" width="67" height="67" transform="rotate(0,530.5,1334.5)"/><rect x="497" y="1368" width="67" height="67" transform="rotate(0,530.5,1401.5)"/><rect x="564" y="95" width="67" height="67" transform="rotate(0,597.5,128.5)"/><rect x="564" y="296" width="67" height="67" transform="rotate(0,597.5,329.5)"/><rect x="564" y="430" width="67" height="67" transform="rotate(0,597.5,463.5)"/><rect x="564" y="564" width="67" height="67" transform="rotate(0,597.5,597.5)"/><rect x="564" y="765" width="67" height="67" transform="rotate(0,597.5,798.5)"/><rect x="564" y="832" width="67" height="67" transform="rotate(0,597.5,865.5)"/><rect x="564" y="1100" width="67" height="67" transform="rotate(0,597.5,1133.5)"/><rect x="564" y="1167" width="67" height="67" transform="rotate(0,597.5,1200.5)"/><rect x="564" y="1368" width="67" height="67" transform="rotate(0,597.5,1401.5)"/><rect x="564" y="1435" width="67" height="67" transform="rotate(0,597.5,1468.5)"/><rect x="564" y="1569" width="67" height="67" transform="rotate(0,597.5,1602.5)"/><rect x="564" y="1636" width="67" height="67" transform="rotate(0,597.5,1669.5)"/><rect x="564" y="1770" width="67" height="67" transform="rotate(0,597.5,1803.5)"/><rect x="631" y="162" width="67" height="67" transform="rotate(0,664.5,195.5)"/><rect x="631" y="229" width="67" height="67" transform="rotate(0,664.5,262.5)"/><rect x="631" y="296" width="67" height="67" transform="rotate(0,664.5,329.5)"/><rect x="631" y="363" width="67" height="67" transform="rotate(0,664.5,396.5)"/><rect x="631" y="564" width="67" height="67" transform="rotate(0,664.5,597.5)"/><rect x="631" y="765" width="67" height="67" transform="rotate(0,664.5,798.5)"/><rect x="631" y="832" width="67" height="67" transform="rotate(0,664.5,865.5)"/><rect x="631" y="966" width="67" height="67" transform="rotate(0,664.5,999.5)"/><rect x="631" y="1100" width="67" height="67" transform="rotate(0,664.5,1133.5)"/><rect x="631" y="1234" width="67" height="67" transform="rotate(0,664.5,1267.5)"/><rect x="631" y="1502" width="67" height="67" transform="rotate(0,664.5,1535.5)"/><rect x="631" y="1569" width="67" height="67" transform="rotate(0,664.5,1602.5)"/><rect x="631" y="1636" width="67" height="67" transform="rotate(0,664.5,1669.5)"/><rect x="631" y="1770" width="67" height="67" transform="rotate(0,664.5,1803.5)"/><rect x="631" y="1837" width="67" height="67" transform="rotate(0,664.5,1870.5)"/><rect x="631" y="1904" width="67" height="67" transform="rotate(0,664.5,1937.5)"/><rect x="698" y="229" width="67" height="67" transform="rotate(0,731.5,262.5)"/><rect x="698" y="363" width="67" height="67" transform="rotate(0,731.5,396.5)"/><rect x="698" y="430" width="67" height="67" transform="rotate(0,731.5,463.5)"/><rect x="698" y="698" width="67" height="67" transform="rotate(0,731.5,731.5)"/><rect x="698" y="765" width="67" height="67" transform="rotate(0,731.5,798.5)"/><rect x="698" y="832" width="67" height="67" transform="rotate(0,731.5,865.5)"/><rect x="698" y="966" width="67" height="67" transform="rotate(0,731.5,999.5)"/><rect x="698" y="1033" width="67" height="67" transform="rotate(0,731.5,1066.5)"/><rect x="698" y="1100" width="67" height="67" transform="rotate(0,731.5,1133.5)"/><rect x="698" y="1167" width="67" height="67" transform="rotate(0,731.5,1200.5)"/><rect x="698" y="1234" width="67" height="67" transform="rotate(0,731.5,1267.5)"/><rect x="698" y="1435" width="67" height="67" transform="rotate(0,731.5,1468.5)"/><rect x="698" y="1904" width="67" height="67" transform="rotate(0,731.5,1937.5)"/><rect x="765" y="95" width="67" height="67" transform="rotate(0,798.5,128.5)"/><rect x="765" y="296" width="67" height="67" transform="rotate(0,798.5,329.5)"/><rect x="765" y="497" width="67" height="67" transform="rotate(0,798.5,530.5)"/><rect x="765" y="698" width="67" height="67" transform="rotate(0,798.5,731.5)"/><rect x="765" y="966" width="67" height="67" transform="rotate(0,798.5,999.5)"/><rect x="765" y="1033" width="67" height="67" transform="rotate(0,798.5,1066.5)"/><rect x="765" y="1167" width="67" height="67" transform="rotate(0,798.5,1200.5)"/><rect x="765" y="1234" width="67" height="67" transform="rotate(0,798.5,1267.5)"/><rect x="765" y="1368" width="67" height="67" transform="rotate(0,798.5,1401.5)"/><rect x="765" y="1435" width="67" height="67" transform="rotate(0,798.5,1468.5)"/><rect x="765" y="1569" width="67" height="67" transform="rotate(0,798.5,1602.5)"/><rect x="765" y="1703" width="67" height="67" transform="rotate(0,798.5,1736.5)"/><rect x="765" y="1837" width="67" height="67" transform="rotate(0,798.5,1870.5)"/><rect x="765" y="1904" width="67" height="67" transform="rotate(0,798.5,1937.5)"/><rect x="832" y="95" width="67" height="67" transform="rotate(0,865.5,128.5)"/><rect x="832" y="229" width="67" height="67" transform="rotate(0,865.5,262.5)"/><rect x="832" y="296" width="67" height="67" transform="rotate(0,865.5,329.5)"/><rect x="832" y="363" width="67" height="67" transform="rotate(0,865.5,396.5)"/><rect x="832" y="430" width="67" height="67" transform="rotate(0,865.5,463.5)"/><rect x="832" y="497" width="67" height="67" transform="rotate(0,865.5,530.5)"/><rect x="832" y="631" width="67" height="67" transform="rotate(0,865.5,664.5)"/><rect x="832" y="765" width="67" height="67" transform="rotate(0,865.5,798.5)"/><rect x="832" y="832" width="67" height="67" transform="rotate(0,865.5,865.5)"/><rect x="832" y="966" width="67" height="67" transform="rotate(0,865.5,999.5)"/><rect x="832" y="1100" width="67" height="67" transform="rotate(0,865.5,1133.5)"/><rect x="832" y="1167" width="67" height="67" transform="rotate(0,865.5,1200.5)"/><rect x="832" y="1234" width="67" height="67" transform="rotate(0,865.5,1267.5)"/><rect x="832" y="1301" width="67" height="67" transform="rotate(0,865.5,1334.5)"/><rect x="832" y="1368" width="67" height="67" transform="rotate(0,865.5,1401.5)"/><rect x="832" y="1569" width="67" height="67" transform="rotate(0,865.5,1602.5)"/><rect x="832" y="1703" width="67" height="67" transform="rotate(0,865.5,1736.5)"/><rect x="832" y="1904" width="67" height="67" transform="rotate(0,865.5,1937.5)"/><rect x="899" y="229" width="67" height="67" transform="rotate(0,932.5,262.5)"/><rect x="899" y="497" width="67" height="67" transform="rotate(0,932.5,530.5)"/><rect x="899" y="832" width="67" height="67" transform="rotate(0,932.5,865.5)"/><rect x="899" y="1100" width="67" height="67" transform="rotate(0,932.5,1133.5)"/><rect x="899" y="1167" width="67" height="67" transform="rotate(0,932.5,1200.5)"/><rect x="899" y="1234" width="67" height="67" transform="rotate(0,932.5,1267.5)"/><rect x="899" y="1368" width="67" height="67" transform="rotate(0,932.5,1401.5)"/><rect x="899" y="1502" width="67" height="67" transform="rotate(0,932.5,1535.5)"/><rect x="899" y="1636" width="67" height="67" transform="rotate(0,932.5,1669.5)"/><rect x="899" y="1770" width="67" height="67" transform="rotate(0,932.5,1803.5)"/><rect x="899" y="1837" width="67" height="67" transform="rotate(0,932.5,1870.5)"/><rect x="899" y="1904" width="67" height="67" transform="rotate(0,932.5,1937.5)"/><rect x="966" y="28" width="67" height="67" transform="rotate(0,999.5,61.5)"/><rect x="966" y="162" width="67" height="67" transform="rotate(0,999.5,195.5)"/><rect x="966" y="296" width="67" height="67" transform="rotate(0,999.5,329.5)"/><rect x="966" y="430" width="67" height="67" transform="rotate(0,999.5,463.5)"/><rect x="966" y="497" width="67" height="67" transform="rotate(0,999.5,530.5)"/><rect x="966" y="564" width="67" height="67" transform="rotate(0,999.5,597.5)"/><rect x="966" y="631" width="67" height="67" transform="rotate(0,999.5,664.5)"/><rect x="966" y="966" width="67" height="67" transform="rotate(0,999.5,999.5)"/><rect x="966" y="1033" width="67" height="67" transform="rotate(0,999.5,1066.5)"/><rect x="966" y="1100" width="67" height="67" transform="rotate(0,999.5,1133.5)"/><rect x="966" y="1234" width="67" height="67" transform="rotate(0,999.5,1267.5)"/><rect x="966" y="1636" width="67" height="67" transform="rotate(0,999.5,1669.5)"/><rect x="966" y="1904" width="67" height="67" transform="rotate(0,999.5,1937.5)"/><rect x="1033" y="28" width="67" height="67" transform="rotate(0,1066.5,61.5)"/><rect x="1033" y="162" width="67" height="67" transform="rotate(0,1066.5,195.5)"/><rect x="1033" y="229" width="67" height="67" transform="rotate(0,1066.5,262.5)"/><rect x="1033" y="296" width="67" height="67" transform="rotate(0,1066.5,329.5)"/><rect x="1033" y="497" width="67" height="67" transform="rotate(0,1066.5,530.5)"/><rect x="1033" y="765" width="67" height="67" transform="rotate(0,1066.5,798.5)"/><rect x="1033" y="832" width="67" height="67" transform="rotate(0,1066.5,865.5)"/><rect x="1033" y="899" width="67" height="67" transform="rotate(0,1066.5,932.5)"/><rect x="1033" y="966" width="67" height="67" transform="rotate(0,1066.5,999.5)"/><rect x="1033" y="1167" width="67" height="67" transform="rotate(0,1066.5,1200.5)"/><rect x="1033" y="1368" width="67" height="67" transform="rotate(0,1066.5,1401.5)"/><rect x="1033" y="1435" width="67" height="67" transform="rotate(0,1066.5,1468.5)"/><rect x="1033" y="1502" width="67" height="67" transform="rotate(0,1066.5,1535.5)"/><rect x="1033" y="1569" width="67" height="67" transform="rotate(0,1066.5,1602.5)"/><rect x="1033" y="1703" width="67" height="67" transform="rotate(0,1066.5,1736.5)"/><rect x="1033" y="1904" width="67" height="67" transform="rotate(0,1066.5,1937.5)"/><rect x="1100" y="162" width="67" height="67" transform="rotate(0,1133.5,195.5)"/><rect x="1100" y="229" width="67" height="67" transform="rotate(0,1133.5,262.5)"/><rect x="1100" y="296" width="67" height="67" transform="rotate(0,1133.5,329.5)"/><rect x="1100" y="430" width="67" height="67" transform="rotate(0,1133.5,463.5)"/><rect x="1100" y="497" width="67" height="67" transform="rotate(0,1133.5,530.5)"/><rect x="1100" y="698" width="67" height="67" transform="rotate(0,1133.5,731.5)"/><rect x="1100" y="832" width="67" height="67" transform="rotate(0,1133.5,865.5)"/><rect x="1100" y="1167" width="67" height="67" transform="rotate(0,1133.5,1200.5)"/><rect x="1100" y="1301" width="67" height="67" transform="rotate(0,1133.5,1334.5)"/><rect x="1100" y="1435" width="67" height="67" transform="rotate(0,1133.5,1468.5)"/><rect x="1167" y="28" width="67" height="67" transform="rotate(0,1200.5,61.5)"/><rect x="1167" y="162" width="67" height="67" transform="rotate(0,1200.5,195.5)"/><rect x="1167" y="229" width="67" height="67" transform="rotate(0,1200.5,262.5)"/><rect x="1167" y="296" width="67" height="67" transform="rotate(0,1200.5,329.5)"/><rect x="1167" y="363" width="67" height="67" transform="rotate(0,1200.5,396.5)"/><rect x="1167" y="497" width="67" height="67" transform="rotate(0,1200.5,530.5)"/><rect x="1167" y="631" width="67" height="67" transform="rotate(0,1200.5,664.5)"/><rect x="1167" y="832" width="67" height="67" transform="rotate(0,1200.5,865.5)"/><rect x="1167" y="899" width="67" height="67" transform="rotate(0,1200.5,932.5)"/><rect x="1167" y="966" width="67" height="67" transform="rotate(0,1200.5,999.5)"/><rect x="1167" y="1167" width="67" height="67" transform="rotate(0,1200.5,1200.5)"/><rect x="1167" y="1234" width="67" height="67" transform="rotate(0,1200.5,1267.5)"/><rect x="1167" y="1435" width="67" height="67" transform="rotate(0,1200.5,1468.5)"/><rect x="1167" y="1502" width="67" height="67" transform="rotate(0,1200.5,1535.5)"/><rect x="1167" y="1569" width="67" height="67" transform="rotate(0,1200.5,1602.5)"/><rect x="1167" y="1636" width="67" height="67" transform="rotate(0,1200.5,1669.5)"/><rect x="1167" y="1770" width="67" height="67" transform="rotate(0,1200.5,1803.5)"/><rect x="1167" y="1904" width="67" height="67" transform="rotate(0,1200.5,1937.5)"/><rect x="1234" y="162" width="67" height="67" transform="rotate(0,1267.5,195.5)"/><rect x="1234" y="296" width="67" height="67" transform="rotate(0,1267.5,329.5)"/><rect x="1234" y="363" width="67" height="67" transform="rotate(0,1267.5,396.5)"/><rect x="1234" y="430" width="67" height="67" transform="rotate(0,1267.5,463.5)"/><rect x="1234" y="497" width="67" height="67" transform="rotate(0,1267.5,530.5)"/><rect x="1234" y="631" width="67" height="67" transform="rotate(0,1267.5,664.5)"/><rect x="1234" y="765" width="67" height="67" transform="rotate(0,1267.5,798.5)"/><rect x="1234" y="966" width="67" height="67" transform="rotate(0,1267.5,999.5)"/><rect x="1234" y="1033" width="67" height="67" transform="rotate(0,1267.5,1066.5)"/><rect x="1234" y="1100" width="67" height="67" transform="rotate(0,1267.5,1133.5)"/><rect x="1234" y="1234" width="67" height="67" transform="rotate(0,1267.5,1267.5)"/><rect x="1234" y="1368" width="67" height="67" transform="rotate(0,1267.5,1401.5)"/><rect x="1234" y="1569" width="67" height="67" transform="rotate(0,1267.5,1602.5)"/><rect x="1234" y="1636" width="67" height="67" transform="rotate(0,1267.5,1669.5)"/><rect x="1234" y="1703" width="67" height="67" transform="rotate(0,1267.5,1736.5)"/><rect x="1234" y="1904" width="67" height="67" transform="rotate(0,1267.5,1937.5)"/><rect x="1301" y="162" width="67" height="67" transform="rotate(0,1334.5,195.5)"/><rect x="1301" y="229" width="67" height="67" transform="rotate(0,1334.5,262.5)"/><rect x="1301" y="296" width="67" height="67" transform="rotate(0,1334.5,329.5)"/><rect x="1301" y="497" width="67" height="67" transform="rotate(0,1334.5,530.5)"/><rect x="1301" y="564" width="67" height="67" transform="rotate(0,1334.5,597.5)"/><rect x="1301" y="899" width="67" height="67" transform="rotate(0,1334.5,932.5)"/><rect x="1301" y="966" width="67" height="67" transform="rotate(0,1334.5,999.5)"/><rect x="1301" y="1033" width="67" height="67" transform="rotate(0,1334.5,1066.5)"/><rect x="1301" y="1167" width="67" height="67" transform="rotate(0,1334.5,1200.5)"/><rect x="1301" y="1234" width="67" height="67" transform="rotate(0,1334.5,1267.5)"/><rect x="1301" y="1703" width="67" height="67" transform="rotate(0,1334.5,1736.5)"/><rect x="1301" y="1837" width="67" height="67" transform="rotate(0,1334.5,1870.5)"/><rect x="1301" y="1904" width="67" height="67" transform="rotate(0,1334.5,1937.5)"/><rect x="1368" y="28" width="67" height="67" transform="rotate(0,1401.5,61.5)"/><rect x="1368" y="95" width="67" height="67" transform="rotate(0,1401.5,128.5)"/><rect x="1368" y="162" width="67" height="67" transform="rotate(0,1401.5,195.5)"/><rect x="1368" y="363" width="67" height="67" transform="rotate(0,1401.5,396.5)"/><rect x="1368" y="430" width="67" height="67" transform="rotate(0,1401.5,463.5)"/><rect x="1368" y="497" width="67" height="67" transform="rotate(0,1401.5,530.5)"/><rect x="1368" y="832" width="67" height="67" transform="rotate(0,1401.5,865.5)"/><rect x="1368" y="966" width="67" height="67" transform="rotate(0,1401.5,999.5)"/><rect x="1368" y="1100" width="67" height="67" transform="rotate(0,1401.5,1133.5)"/><rect x="1368" y="1167" width="67" height="67" transform="rotate(0,1401.5,1200.5)"/><rect x="1368" y="1301" width="67" height="67" transform="rotate(0,1401.5,1334.5)"/><rect x="1368" y="1368" width="67" height="67" transform="rotate(0,1401.5,1401.5)"/><rect x="1368" y="1435" width="67" height="67" transform="rotate(0,1401.5,1468.5)"/><rect x="1368" y="1502" width="67" height="67" transform="rotate(0,1401.5,1535.5)"/><rect x="1368" y="1569" width="67" height="67" transform="rotate(0,1401.5,1602.5)"/><rect x="1368" y="1636" width="67" height="67" transform="rotate(0,1401.5,1669.5)"/><rect x="1368" y="1770" width="67" height="67" transform="rotate(0,1401.5,1803.5)"/><rect x="1435" y="564" width="67" height="67" transform="rotate(0,1468.5,597.5)"/><rect x="1435" y="698" width="67" height="67" transform="rotate(0,1468.5,731.5)"/><rect x="1435" y="1033" width="67" height="67" transform="rotate(0,1468.5,1066.5)"/><rect x="1435" y="1100" width="67" height="67" transform="rotate(0,1468.5,1133.5)"/><rect x="1435" y="1234" width="67" height="67" transform="rotate(0,1468.5,1267.5)"/><rect x="1435" y="1368" width="67" height="67" transform="rotate(0,1468.5,1401.5)"/><rect x="1435" y="1636" width="67" height="67" transform="rotate(0,1468.5,1669.5)"/><rect x="1435" y="1770" width="67" height="67" transform="rotate(0,1468.5,1803.5)"/><rect x="1435" y="1904" width="67" height="67" transform="rotate(0,1468.5,1937.5)"/><rect x="1502" y="631" width="67" height="67" transform="rotate(0,1535.5,664.5)"/><rect x="1502" y="698" width="67" height="67" transform="rotate(0,1535.5,731.5)"/><rect x="1502" y="765" width="67" height="67" transform="rotate(0,1535.5,798.5)"/><rect x="1502" y="899" width="67" height="67" transform="rotate(0,1535.5,932.5)"/><rect x="1502" y="1033" width="67" height="67" transform="rotate(0,1535.5,1066.5)"/><rect x="1502" y="1301" width="67" height="67" transform="rotate(0,1535.5,1334.5)"/><rect x="1502" y="1368" width="67" height="67" transform="rotate(0,1535.5,1401.5)"/><rect x="1502" y="1502" width="67" height="67" transform="rotate(0,1535.5,1535.5)"/><rect x="1502" y="1636" width="67" height="67" transform="rotate(0,1535.5,1669.5)"/><rect x="1502" y="1904" width="67" height="67" transform="rotate(0,1535.5,1937.5)"/><rect x="1569" y="698" width="67" height="67" transform="rotate(0,1602.5,731.5)"/><rect x="1569" y="832" width="67" height="67" transform="rotate(0,1602.5,865.5)"/><rect x="1569" y="899" width="67" height="67" transform="rotate(0,1602.5,932.5)"/><rect x="1569" y="966" width="67" height="67" transform="rotate(0,1602.5,999.5)"/><rect x="1569" y="1100" width="67" height="67" transform="rotate(0,1602.5,1133.5)"/><rect x="1569" y="1167" width="67" height="67" transform="rotate(0,1602.5,1200.5)"/><rect x="1569" y="1301" width="67" height="67" transform="rotate(0,1602.5,1334.5)"/><rect x="1569" y="1368" width="67" height="67" transform="rotate(0,1602.5,1401.5)"/><rect x="1569" y="1636" width="67" height="67" transform="rotate(0,1602.5,1669.5)"/><rect x="1569" y="1703" width="67" height="67" transform="rotate(0,1602.5,1736.5)"/><rect x="1569" y="1837" width="67" height="67" transform="rotate(0,1602.5,1870.5)"/><rect x="1569" y="1904" width="67" height="67" transform="rotate(0,1602.5,1937.5)"/><rect x="1636" y="564" width="67" height="67" transform="rotate(0,1669.5,597.5)"/><rect x="1636" y="698" width="67" height="67" transform="rotate(0,1669.5,731.5)"/><rect x="1636" y="765" width="67" height="67" transform="rotate(0,1669.5,798.5)"/><rect x="1636" y="832" width="67" height="67" transform="rotate(0,1669.5,865.5)"/><rect x="1636" y="1100" width="67" height="67" transform="rotate(0,1669.5,1133.5)"/><rect x="1636" y="1167" width="67" height="67" transform="rotate(0,1669.5,1200.5)"/><rect x="1636" y="1301" width="67" height="67" transform="rotate(0,1669.5,1334.5)"/><rect x="1636" y="1368" width="67" height="67" transform="rotate(0,1669.5,1401.5)"/><rect x="1636" y="1435" width="67" height="67" transform="rotate(0,1669.5,1468.5)"/><rect x="1636" y="1502" width="67" height="67" transform="rotate(0,1669.5,1535.5)"/><rect x="1636" y="1569" width="67" height="67" transform="rotate(0,1669.5,1602.5)"/><rect x="1636" y="1636" width="67" height="67" transform="rotate(0,1669.5,1669.5)"/><rect x="1636" y="1837" width="67" height="67" transform="rotate(0,1669.5,1870.5)"/><rect x="1703" y="631" width="67" height="67" transform="rotate(0,1736.5,664.5)"/><rect x="1703" y="1033" width="67" height="67" transform="rotate(0,1736.5,1066.5)"/><rect x="1703" y="1100" width="67" height="67" transform="rotate(0,1736.5,1133.5)"/><rect x="1703" y="1234" width="67" height="67" transform="rotate(0,1736.5,1267.5)"/><rect x="1703" y="1569" width="67" height="67" transform="rotate(0,1736.5,1602.5)"/><rect x="1703" y="1904" width="67" height="67" transform="rotate(0,1736.5,1937.5)"/><rect x="1770" y="631" width="67" height="67" transform="rotate(0,1803.5,664.5)"/><rect x="1770" y="899" width="67" height="67" transform="rotate(0,1803.5,932.5)"/><rect x="1770" y="1033" width="67" height="67" transform="rotate(0,1803.5,1066.5)"/><rect x="1770" y="1167" width="67" height="67" transform="rotate(0,1803.5,1200.5)"/><rect x="1770" y="1234" width="67" height="67" transform="rotate(0,1803.5,1267.5)"/><rect x="1770" y="1301" width="67" height="67" transform="rotate(0,1803.5,1334.5)"/><rect x="1770" y="1368" width="67" height="67" transform="rotate(0,1803.5,1401.5)"/><rect x="1770" y="1435" width="67" height="67" transform="rotate(0,1803.5,1468.5)"/><rect x="1770" y="1703" width="67" height="67" transform="rotate(0,1803.5,1736.5)"/><rect x="1770" y="1770" width="67" height="67" transform="rotate(0,1803.5,1803.5)"/><rect x="1770" y="1837" width="67" height="67" transform="rotate(0,1803.5,1870.5)"/><rect x="1770" y="1904" width="67" height="67" transform="rotate(0,1803.5,1937.5)"/><rect x="1837" y="564" width="67" height="67" transform="rotate(0,1870.5,597.5)"/><rect x="1837" y="765" width="67" height="67" transform="rotate(0,1870.5,798.5)"/><rect x="1837" y="832" width="67" height="67" transform="rotate(0,1870.5,865.5)"/><rect x="1837" y="899" width="67" height="67" transform="rotate(0,1870.5,932.5)"/><rect x="1837" y="1167" width="67" height="67" transform="rotate(0,1870.5,1200.5)"/><rect x="1837" y="1234" width="67" height="67" transform="rotate(0,1870.5,1267.5)"/><rect x="1837" y="1368" width="67" height="67" transform="rotate(0,1870.5,1401.5)"/><rect x="1837" y="1502" width="67" height="67" transform="rotate(0,1870.5,1535.5)"/><rect x="1837" y="1569" width="67" height="67" transform="rotate(0,1870.5,1602.5)"/><rect x="1837" y="1703" width="67" height="67" transform="rotate(0,1870.5,1736.5)"/><rect x="1837" y="1837" width="67" height="67" transform="rotate(0,1870.5,1870.5)"/><rect x="1837" y="1904" width="67" height="67" transform="rotate(0,1870.5,1937.5)"/><rect x="1904" y="631" width="67" height="67" transform="rotate(0,1937.5,664.5)"/><rect x="1904" y="698" width="67" height="67" transform="rotate(0,1937.5,731.5)"/><rect x="1904" y="765" width="67" height="67" transform="rotate(0,1937.5,798.5)"/><rect x="1904" y="966" width="67" height="67" transform="rotate(0,1937.5,999.5)"/><rect x="1904" y="1033" width="67" height="67" transform="rotate(0,1937.5,1066.5)"/><rect x="1904" y="1100" width="67" height="67" transform="rotate(0,1937.5,1133.5)"/><rect x="1904" y="1167" width="67" height="67" transform="rotate(0,1937.5,1200.5)"/><rect x="1904" y="1368" width="67" height="67" transform="rotate(0,1937.5,1401.5)"/><rect x="1904" y="1435" width="67" height="67" transform="rotate(0,1937.5,1468.5)"/><rect x="1904" y="1636" width="67" height="67" transform="rotate(0,1937.5,1669.5)"/><rect x="1904" y="1837" width="67" height="67" transform="rotate(0,1937.5,1870.5)"/></clipPath><clipPath id="clip-path-corners-square-color-0-0"><path clip-rule="evenodd" d="M 28 28v 469h 469v -469zM 95 95h 335v 335h -335z" transform="rotate(0,262.5,262.5)"/></clipPath><clipPath id="clip-path-corners-dot-color-0-0"><rect x="162" y="162" width="201" height="201" transform="rotate(0,262.5,262.5)"/></clipPath><clipPath id="clip-path-corners-square-color-1-0"><path clip-rule="evenodd" d="M 1502 28v 469h 469v -469zM 1569 95h 335v 335h -335z" transform="rotate(90,1736.5,262.5)"/></clipPath><clipPath id="clip-path-corners-dot-color-1-0"><rect x="1636" y="162" width="201" height="201" transform="rotate(90,1736.5,262.5)"/></clipPath><clipPath id="clip-path-corners-square-color-0-1"><path clip-rule="evenodd" d="M 28 1502v 469h 469v -469zM 95 1569h 335v 335h -335z" transform="rotate(-90,262.5,1736.5)"/></clipPath><clipPath id="clip-path-corners-dot-color-0-1"><rect x="162" y="1636" width="201" height="201" transform="rotate(-90,262.5,1736.5)"/></clipPath></defs><rect x="0" y="0" height="2000" width="2000" clip-path="url('#clip-path-background-color')" fill="#00000000"/><rect x="28" y="28" height="1943" width="1943" clip-path="url('#clip-path-dot-color')" fill="#000000"/><rect x="28" y="28" height="469" width="469" clip-path="url('#clip-path-corners-square-color-0-0')" fill="#000000"/><rect x="162" y="162" height="201" width="201" clip-path="url('#clip-path-corners-dot-color-0-0')" fill="#000000"/><rect x="1502" y="28" height="469" width="469" clip-path="url('#clip-path-corners-square-color-1-0')" fill="#000000"/><rect x="1636" y="162" height="201" width="201" clip-path="url('#clip-path-corners-dot-color-1-0')" fill="#000000"/><rect x="28" y="1502" height="469" width="469" clip-path="url('#clip-path-corners-square-color-0-1')" fill="#000000"/><rect x="162" y="1636" height="201" width="201" clip-path="url('#clip-path-corners-dot-color-0-1')" fill="#000000"/></svg>