<svg width="25" height="24" viewBox="0 0 25 24" fill="none" xmlns="http://www.w3.org/2000/svg">
<path d="M17.4956 11.2441C18.2767 10.463 18.2767 9.19668 17.4956 8.41563L16.0841 7.00406C15.303 6.22301 14.0367 6.22301 13.2556 7.00406L3.50406 16.7556C2.72301 17.5367 2.72301 18.803 3.50406 19.5841L4.91563 20.9956C5.69668 21.7767 6.96301 21.7767 7.74406 20.9956L17.4956 11.2441ZM15.3998 10.5198C15.0188 10.9009 14.4009 10.9009 14.0198 10.5198L13.9898 10.4898C13.6088 10.1088 13.6088 9.49092 13.9898 9.10984C14.3709 8.72877 14.9888 8.72877 15.3698 9.10984L15.3998 9.13984C15.7809 9.52092 15.7809 10.1388 15.3998 10.5198Z" fill="#476BF0"/>
<path d="M20.5 12.5L19.715 14.2204C19.615 14.4394 19.4394 14.615 19.2204 14.715L17.5 15.5L19.2204 16.285C19.4394 16.385 19.615 16.5606 19.715 16.7796L20.5 18.5L21.285 16.7796C21.385 16.5606 21.5606 16.385 21.7796 16.285L23.5 15.5L21.7796 14.715C21.5606 14.615 21.385 14.4394 21.285 14.2204L20.5 12.5Z" fill="#476BF0"/>
<path d="M9 7L9.78502 5.27964C9.88497 5.0606 10.0606 4.88497 10.2796 4.78502L12 4L10.2796 3.21498C10.0606 3.11503 9.88497 2.9394 9.78502 2.72036L9 1L8.21498 2.72036C8.11503 2.9394 7.9394 3.11503 7.72036 3.21498L6 4L7.72036 4.78502C7.9394 4.88497 8.11503 5.0606 8.21498 5.27964L9 7Z" fill="#476BF0"/>
<path d="M20.5 7L21.285 5.27964C21.385 5.0606 21.5606 4.88497 21.7796 4.78502L23.5 4L21.7796 3.21498C21.5606 3.11503 21.385 2.9394 21.285 2.72036L20.5 1L19.715 2.72036C19.615 2.9394 19.4394 3.11503 19.2204 3.21498L17.5 4L19.2204 4.78502C19.4394 4.88497 19.615 5.0606 19.715 5.27964L20.5 7Z" fill="#476BF0"/>
</svg>
