<svg width="40" height="40" viewBox="0 0 40 40" fill="none" xmlns="http://www.w3.org/2000/svg">
<path d="M19.9998 36C19.9998 36 32.5215 24.8696 32.5215 16.5217C32.5215 9.60617 26.9153 4 19.9998 4C13.0842 4 7.47803 9.60617 7.47803 16.5217C7.47803 24.8696 19.9998 36 19.9998 36Z" fill="white"/>
<path d="M19.9998 36C19.9998 36 32.5215 24.8696 32.5215 16.5217C32.5215 9.60617 26.9153 4 19.9998 4C13.0842 4 7.47803 9.60617 7.47803 16.5217C7.47803 24.8696 19.9998 36 19.9998 36Z" fill="#9931D8" fill-opacity="0.2"/>
<path d="M24.0003 16.0003C24.0003 18.2094 22.2094 20.0003 20.0003 20.0003C17.7911 20.0003 16.0003 18.2094 16.0003 16.0003C16.0003 13.7911 17.7911 12.0003 20.0003 12.0003C22.2094 12.0003 24.0003 13.7911 24.0003 16.0003Z" fill="white"/>
<path d="M24.0003 16.0003C24.0003 18.2094 22.2094 20.0003 20.0003 20.0003C17.7911 20.0003 16.0003 18.2094 16.0003 16.0003C16.0003 13.7911 17.7911 12.0003 20.0003 12.0003C22.2094 12.0003 24.0003 13.7911 24.0003 16.0003Z" fill="#9931D8" fill-opacity="0.2"/>
<path d="M19.9998 36C19.9998 36 32.5215 24.8696 32.5215 16.5217C32.5215 9.60617 26.9153 4 19.9998 4C13.0842 4 7.47803 9.60617 7.47803 16.5217C7.47803 24.8696 19.9998 36 19.9998 36Z" stroke="#9931D8" stroke-width="2"/>
<path d="M24.0003 16.0003C24.0003 18.2094 22.2094 20.0003 20.0003 20.0003C17.7911 20.0003 16.0003 18.2094 16.0003 16.0003C16.0003 13.7911 17.7911 12.0003 20.0003 12.0003C22.2094 12.0003 24.0003 13.7911 24.0003 16.0003Z" stroke="#9931D8" stroke-width="2"/>
<circle cx="20" cy="16" r="3" fill="white"/>
</svg>
